<svg version="1.2" xmlns="http://www.w3.org/2000/svg" viewBox="0 0 36 29" width="36" height="29">
	<title>chatbox-icon-svg</title>
	<style>
		.s0 { fill: #254252 } 
	</style>
	<path id="Layer" class="s0" d="m14.1 20.9q-1.8-0.1-3.5-0.4c-1.7 1.2-3.5 2.1-5.6 2.6q-0.8 0.2-1.7 0.3 0 0-0.1 0c-0.3 0-0.5-0.2-0.6-0.6-0.1-0.3 0.2-0.6 0.4-0.8 0.8-0.9 1.7-1.7 2.3-3.4-3.2-1.9-5.3-4.8-5.3-8 0-5.7 6.3-10.3 14.1-10.3 7.9 0 14.2 4.6 14.2 10.3 0 5.7-6.3 10.3-14.2 10.3zm16.6 2.9c0.6 1.6 1.5 2.4 2.3 3.3 0.2 0.3 0.5 0.5 0.4 0.9-0.1 0.4-0.4 0.6-0.7 0.6q-0.9-0.1-1.7-0.3c-2.1-0.6-3.9-1.4-5.6-2.6q-1.7 0.3-3.5 0.3c-3.7 0-7-1-9.5-2.7q0.9 0.1 1.7 0.1c4.4 0 8.4-1.2 11.6-3.5 3.3-2.4 5.2-5.7 5.2-9.3q0-1.6-0.5-3.1c3.4 1.9 5.6 4.9 5.6 8.2 0 3.3-2.1 6.2-5.3 8.1z"/>
</svg>